<svg viewBox="0 0 1600 450" xmlns="http://www.w3.org/2000/svg" preserveAspectRatio="xMidYMid slice">
  <defs>
    <linearGradient id="g" x1="0" y1="0" x2="1" y2="1">
      <stop offset="0" stop-color="#15293f"/><stop offset="1" stop-color="#1E3A5F"/>
    </linearGradient>
  </defs>
  <rect width="1600" height="450" fill="url(#g)"/>
  <!-- envelope -->
  <g opacity="0.2">
    <rect x="1260" y="150" width="240" height="160" rx="12" fill="#F5A623"/>
    <path d="M1260 165 L1380 250 L1500 165" fill="none" stroke="#1E3A5F" stroke-width="8"/>
  </g>
  <!-- location pin -->
  <g opacity="0.3">
    <path d="M300 130 c-50 0 -90 40 -90 90 c0 65 90 150 90 150 c0 0 90 -85 90 -150 c0 -50 -40 -90 -90 -90 z" fill="none" stroke="#F7B84B" stroke-width="4"/>
    <circle cx="300" cy="220" r="30" fill="#F7B84B" opacity="0.6"/>
  </g>
  <!-- chat bubble -->
  <g opacity="0.25">
    <rect x="560" y="160" width="200" height="120" rx="18" fill="#F7B84B"/>
    <polygon points="600,280 600,330 650,280" fill="#F7B84B"/>
    <rect x="585" y="195" width="150" height="12" rx="6" fill="#1E3A5F"/>
    <rect x="585" y="222" width="120" height="12" rx="6" fill="#1E3A5F"/>
  </g>
</svg>
