<svg viewBox="0 0 1600 450" xmlns="http://www.w3.org/2000/svg" preserveAspectRatio="xMidYMid slice">
  <defs>
    <linearGradient id="g" x1="0" y1="0" x2="1" y2="1">
      <stop offset="0" stop-color="#15293f"/><stop offset="1" stop-color="#1E3A5F"/>
    </linearGradient>
  </defs>
  <rect width="1600" height="450" fill="url(#g)"/>
  <!-- hand holding heart -->
  <g opacity="0.2">
    <path d="M1360 150 c-26 -26 -70 -26 -96 0 l-14 14 -14 -14 c-26 -26 -70 -26 -96 0 c-26 26 -26 70 0 96 l110 110 110 -110 c26 -26 26 -70 0 -96 z" fill="#F5A623"/>
    <path d="M1130 290 q-40 10 -60 50 l260 0 q-10 -50 -60 -60 z" fill="#F7B84B"/>
  </g>
  <!-- coins -->
  <g opacity="0.3" fill="none" stroke="#F7B84B" stroke-width="3">
    <ellipse cx="280" cy="300" rx="70" ry="22"/><ellipse cx="280" cy="280" rx="70" ry="22"/><ellipse cx="280" cy="260" rx="70" ry="22"/>
    <ellipse cx="430" cy="310" rx="55" ry="18"/><ellipse cx="430" cy="296" rx="55" ry="18"/>
  </g>
  <text x="280" y="200" font-family="Georgia, serif" font-size="70" fill="#F5A623" opacity="0.25" text-anchor="middle">₹</text>
</svg>
