<svg viewBox="0 0 1600 450" xmlns="http://www.w3.org/2000/svg" preserveAspectRatio="xMidYMid slice">
  <defs>
    <linearGradient id="g" x1="0" y1="0" x2="1" y2="1">
      <stop offset="0" stop-color="#15293f"/><stop offset="1" stop-color="#1E3A5F"/>
    </linearGradient>
  </defs>
  <rect width="1600" height="450" fill="url(#g)"/>
  <!-- medal on ribbon -->
  <g transform="translate(1320,120)" opacity="0.2">
    <polygon points="-40,0 40,0 20,70 -20,70" fill="#F7B84B"/>
    <circle cx="0" cy="120" r="55" fill="#F5A623"/>
    <g transform="translate(0,120)" fill="#1E3A5F"><polygon points="0,-30 9,-9 31,-9 13,4 20,26 0,13 -20,26 -13,4 -31,-9 -9,-9"/></g>
  </g>
  <!-- coins with star -->
  <g opacity="0.3" fill="none" stroke="#F7B84B" stroke-width="3">
    <ellipse cx="280" cy="300" rx="70" ry="22"/><ellipse cx="280" cy="280" rx="70" ry="22"/><ellipse cx="280" cy="260" rx="70" ry="22"/>
    <ellipse cx="430" cy="310" rx="55" ry="18"/><ellipse cx="430" cy="296" rx="55" ry="18"/>
  </g>
  <text x="280" y="200" font-family="Georgia, serif" font-size="70" fill="#F5A623" opacity="0.25" text-anchor="middle">₹</text>
</svg>
