<svg viewBox="0 0 1600 450" xmlns="http://www.w3.org/2000/svg" preserveAspectRatio="xMidYMid slice">
  <defs>
    <linearGradient id="g" x1="0" y1="0" x2="1" y2="1">
      <stop offset="0" stop-color="#15293f"/><stop offset="1" stop-color="#1E3A5F"/>
    </linearGradient>
  </defs>
  <rect width="1600" height="450" fill="url(#g)"/>
  <!-- calendar with star -->
  <g opacity="0.2">
    <rect x="1280" y="130" width="200" height="190" rx="14" fill="#F5A623"/>
    <rect x="1280" y="130" width="200" height="44" rx="14" fill="#d98e0f"/>
    <rect x="1315" y="115" width="14" height="38" rx="6" fill="#F7B84B"/>
    <rect x="1431" y="115" width="14" height="38" rx="6" fill="#F7B84B"/>
    <g transform="translate(1380,250)" fill="#1E3A5F"><polygon points="0,-34 10,-11 34,-11 15,5 22,30 0,16 -22,30 -15,5 -34,-11 -10,-11"/></g>
  </g>
  <!-- bugle / trumpet (assembly) -->
  <g transform="translate(240,210)" opacity="0.18" fill="none" stroke="#F7B84B" stroke-width="5">
    <path d="M0 30 q120 -60 230 -10"/>
    <path d="M230 -10 a40 40 0 1 1 -2 70 Z" fill="#F7B84B" stroke="none"/>
    <circle cx="20" cy="32" r="14" fill="#F7B84B" stroke="none"/>
    <path d="M40 24 q90 -36 180 -8"/>
  </g>
  <!-- pennant flags -->
  <g opacity="0.4">
    <polygon points="560,120 610,135 560,150" fill="#F7B84B"/>
    <polygon points="640,150 690,165 640,180" fill="#F5A623"/>
    <polygon points="600,250 650,265 600,280" fill="#F7B84B"/>
  </g>
</svg>
