<svg viewBox="0 0 1600 450" xmlns="http://www.w3.org/2000/svg" preserveAspectRatio="xMidYMid slice">
  <defs>
    <linearGradient id="g" x1="0" y1="0" x2="1" y2="1">
      <stop offset="0" stop-color="#15293f"/><stop offset="1" stop-color="#1E3A5F"/>
    </linearGradient>
  </defs>
  <rect width="1600" height="450" fill="url(#g)"/>
  <!-- scattered photo frames -->
  <g opacity="0.18">
    <g transform="rotate(-8 250 180)"><rect x="180" y="120" width="150" height="120" rx="6" fill="#F7B84B"/><rect x="192" y="132" width="126" height="80" fill="#1E3A5F"/></g>
    <g transform="rotate(6 1380 150)"><rect x="1300" y="90" width="160" height="125" rx="6" fill="#F5A623"/><rect x="1312" y="102" width="136" height="85" fill="#1E3A5F"/></g>
    <g transform="rotate(-5 1300 330)"><rect x="1230" y="280" width="150" height="115" rx="6" fill="#F7B84B"/><rect x="1242" y="292" width="126" height="76" fill="#1E3A5F"/></g>
  </g>
  <!-- camera outline -->
  <g fill="none" stroke="#F7B84B" stroke-width="4" opacity="0.3">
    <rect x="700" y="170" width="200" height="130" rx="14"/>
    <rect x="760" y="150" width="60" height="24" rx="6"/>
    <circle cx="800" cy="235" r="40"/><circle cx="800" cy="235" r="20"/>
    <circle cx="860" cy="190" r="6" fill="#F7B84B"/>
  </g>
</svg>
